<svg xmlns="http://www.w3.org/2000/svg" xmlns:xlink="http://www.w3.org/1999/xlink" width="500" zoomAndPan="magnify" viewBox="0 0 375 374.999991" height="500" preserveAspectRatio="xMidYMid meet" version="1.0"><defs><g/><clipPath id="3a6a35fd75"><path d="M 18.757812 129.089844 L 356.242188 129.089844 L 356.242188 233.902344 L 18.757812 233.902344 Z M 18.757812 129.089844 " clip-rule="nonzero"/></clipPath><clipPath id="e06f8f0b48"><path d="M 57.050781 221.089844 L 317.949219 221.089844 L 317.949219 245.910156 L 57.050781 245.910156 Z M 57.050781 221.089844 " clip-rule="nonzero"/></clipPath></defs><rect x="-37.5" width="450" fill="#ffffff" y="-37.499999" height="449.999989" fill-opacity="1"/><rect x="-37.5" width="450" fill="#060606" y="-37.499999" height="449.999989" fill-opacity="1"/><g clip-path="url(#3a6a35fd75)"><path stroke-linecap="butt" transform="matrix(0.75, 0, 0, 0.75, 18.759267, 129.09087)" fill="none" stroke-linejoin="miter" d="M -0.00193873 -0.00136823 L 449.977257 -0.00136823 L 449.977257 139.748641 L -0.00193873 139.748641 Z M -0.00193873 -0.00136823 " stroke="#fbfaf9" stroke-width="2" stroke-opacity="1" stroke-miterlimit="4"/></g><g fill="#dec2ba" fill-opacity="1"><g transform="translate(82.731613, 200.715865)"><g><path d="M 27.046875 -35.296875 C 28.578125 -35.296875 29.84375 -35.347656 30.84375 -35.453125 L 30.84375 -34.453125 C 29.3125 -33.816406 27.710938 -31.882812 26.046875 -28.65625 L 20.15625 -16.953125 L 20.15625 -5.296875 C 20.15625 -4.035156 20.242188 -3.117188 20.421875 -2.546875 C 20.609375 -1.984375 20.953125 -1.597656 21.453125 -1.390625 C 21.953125 -1.191406 22.769531 -1.0625 23.90625 -1 L 23.90625 0 C 22.101562 -0.101562 19.535156 -0.15625 16.203125 -0.15625 C 12.628906 -0.15625 10.046875 -0.101562 8.453125 0 L 8.453125 -1 C 9.546875 -1.0625 10.351562 -1.191406 10.875 -1.390625 C 11.394531 -1.597656 11.742188 -1.984375 11.921875 -2.546875 C 12.109375 -3.117188 12.203125 -4.035156 12.203125 -5.296875 L 12.203125 -13.75 L 2.546875 -31.59375 C 1.515625 -33.46875 0.550781 -34.40625 -0.34375 -34.40625 L -0.34375 -35.453125 C 1.113281 -35.285156 3.078125 -35.203125 5.546875 -35.203125 C 8.648438 -35.203125 11.785156 -35.285156 14.953125 -35.453125 L 14.953125 -34.40625 C 13.785156 -34.40625 12.859375 -34.296875 12.171875 -34.078125 C 11.492188 -33.859375 11.15625 -33.46875 11.15625 -32.90625 C 11.15625 -32.601562 11.269531 -32.234375 11.5 -31.796875 L 19.09375 -17.15625 L 23 -24.953125 C 24.300781 -27.585938 24.953125 -29.65625 24.953125 -31.15625 C 24.953125 -32.28125 24.59375 -33.09375 23.875 -33.59375 C 23.15625 -34.09375 22.128906 -34.378906 20.796875 -34.453125 L 20.796875 -35.453125 C 23.066406 -35.347656 25.148438 -35.296875 27.046875 -35.296875 Z M 27.046875 -35.296875 "/></g></g></g><g fill="#dec2ba" fill-opacity="1"><g transform="translate(112.37679, 200.715865)"><g><path d="M 26.09375 -5.453125 C 26.09375 -3.921875 26.332031 -2.800781 26.8125 -2.09375 C 27.300781 -1.394531 28.128906 -1.046875 29.296875 -1.046875 L 29.296875 0 C 28.265625 -0.101562 27.234375 -0.15625 26.203125 -0.15625 C 23.296875 -0.15625 20.863281 0.078125 18.90625 0.546875 L 18.90625 -3.953125 C 17.363281 -0.847656 14.675781 0.703125 10.84375 0.703125 C 8.34375 0.703125 6.53125 0.0507812 5.40625 -1.25 C 4.863281 -1.882812 4.46875 -2.707031 4.21875 -3.71875 C 3.96875 -4.738281 3.84375 -6.082031 3.84375 -7.75 L 3.84375 -20.40625 C 3.84375 -21.9375 3.601562 -23.050781 3.125 -23.75 C 2.644531 -24.445312 1.820312 -24.796875 0.65625 -24.796875 L 0.65625 -25.84375 C 1.6875 -25.75 2.71875 -25.703125 3.75 -25.703125 C 6.644531 -25.703125 9.078125 -25.9375 11.046875 -26.40625 L 11.046875 -5.703125 C 11.046875 -4.296875 11.253906 -3.242188 11.671875 -2.546875 C 12.085938 -1.847656 12.878906 -1.5 14.046875 -1.5 C 15.378906 -1.5 16.519531 -2.054688 17.46875 -3.171875 C 18.425781 -4.285156 18.90625 -5.660156 18.90625 -7.296875 L 18.90625 -20.40625 C 18.90625 -21.9375 18.660156 -23.050781 18.171875 -23.75 C 17.691406 -24.445312 16.867188 -24.796875 15.703125 -24.796875 L 15.703125 -25.84375 C 16.765625 -25.75 17.796875 -25.703125 18.796875 -25.703125 C 21.703125 -25.703125 24.132812 -25.9375 26.09375 -26.40625 Z M 26.09375 -5.453125 "/></g></g></g><g fill="#dec2ba" fill-opacity="1"><g transform="translate(141.172105, 200.715865)"><g><path d="M 26.59375 -3.65625 C 27.132812 -2.851562 27.570312 -2.257812 27.90625 -1.875 C 28.238281 -1.488281 28.671875 -1.210938 29.203125 -1.046875 L 29.203125 0 C 26.535156 -0.132812 24.785156 -0.203125 23.953125 -0.203125 C 22.847656 -0.203125 20.695312 -0.132812 17.5 0 L 17.5 -1.046875 C 17.96875 -1.046875 18.332031 -1.128906 18.59375 -1.296875 C 18.863281 -1.460938 19 -1.695312 19 -2 C 19 -2.164062 18.914062 -2.414062 18.75 -2.75 L 13.796875 -11.703125 C 13.460938 -12.265625 13.113281 -12.644531 12.75 -12.84375 C 12.382812 -13.050781 11.914062 -13.1875 11.34375 -13.25 L 11.34375 -4.65625 C 11.34375 -3.28125 11.5625 -2.332031 12 -1.8125 C 12.4375 -1.300781 13.21875 -1.046875 14.34375 -1.046875 L 14.34375 0 C 11.007812 -0.132812 8.84375 -0.203125 7.84375 -0.203125 C 6.71875 -0.203125 4.421875 -0.132812 0.953125 0 L 0.953125 -1.046875 C 2.117188 -1.046875 2.941406 -1.300781 3.421875 -1.8125 C 3.910156 -2.332031 4.15625 -3.28125 4.15625 -4.65625 L 4.15625 -33.15625 C 4.15625 -34.6875 3.910156 -35.800781 3.421875 -36.5 C 2.941406 -37.195312 2.117188 -37.546875 0.953125 -37.546875 L 0.953125 -38.59375 C 2.015625 -38.5 3.046875 -38.453125 4.046875 -38.453125 C 6.953125 -38.453125 9.382812 -38.6875 11.34375 -39.15625 L 11.34375 -14.203125 C 12.007812 -14.265625 12.582031 -14.394531 13.0625 -14.59375 C 13.550781 -14.800781 13.976562 -15.101562 14.34375 -15.5 L 18.15625 -19.203125 C 19.25 -20.296875 19.796875 -21.3125 19.796875 -22.25 C 19.796875 -23.019531 19.445312 -23.628906 18.75 -24.078125 C 18.050781 -24.523438 17.117188 -24.78125 15.953125 -24.84375 L 15.953125 -25.84375 C 17.785156 -25.75 19.734375 -25.703125 21.796875 -25.703125 C 24.566406 -25.703125 26.519531 -25.75 27.65625 -25.84375 L 27.65625 -24.84375 C 25.6875 -24.414062 23.601562 -23.132812 21.40625 -21 L 18.203125 -17.703125 Z M 26.59375 -3.65625 "/></g></g></g><g fill="#dec2ba" fill-opacity="1"><g transform="translate(168.917589, 200.715865)"><g><path d="M 7.703125 -38.75 C 9.109375 -38.75 10.21875 -38.40625 11.03125 -37.71875 C 11.84375 -37.039062 12.25 -36.101562 12.25 -34.90625 C 12.25 -33.695312 11.84375 -32.75 11.03125 -32.0625 C 10.21875 -31.382812 9.109375 -31.046875 7.703125 -31.046875 C 6.304688 -31.046875 5.195312 -31.382812 4.375 -32.0625 C 3.5625 -32.75 3.15625 -33.695312 3.15625 -34.90625 C 3.15625 -36.101562 3.5625 -37.039062 4.375 -37.71875 C 5.195312 -38.40625 6.304688 -38.75 7.703125 -38.75 Z M 11.59375 -4.65625 C 11.59375 -3.28125 11.832031 -2.332031 12.3125 -1.8125 C 12.800781 -1.300781 13.628906 -1.046875 14.796875 -1.046875 L 14.796875 0 C 11.460938 -0.132812 9.25 -0.203125 8.15625 -0.203125 C 7.113281 -0.203125 4.796875 -0.132812 1.203125 0 L 1.203125 -1.046875 C 2.398438 -1.046875 3.234375 -1.300781 3.703125 -1.8125 C 4.171875 -2.332031 4.40625 -3.28125 4.40625 -4.65625 L 4.40625 -20.40625 C 4.40625 -21.9375 4.171875 -23.050781 3.703125 -23.75 C 3.234375 -24.445312 2.398438 -24.796875 1.203125 -24.796875 L 1.203125 -25.84375 C 2.265625 -25.75 3.296875 -25.703125 4.296875 -25.703125 C 7.265625 -25.703125 9.695312 -25.9375 11.59375 -26.40625 Z M 11.59375 -4.65625 "/></g></g></g><g fill="#dec2ba" fill-opacity="1"><g transform="translate(183.16515, 200.715865)"><g><path d="M 11.34375 -25.84375 L 17.25 -25.84375 L 17.25 -24.84375 L 11.34375 -24.84375 L 11.34375 -4.65625 C 11.34375 -3.65625 11.519531 -2.945312 11.875 -2.53125 C 12.226562 -2.113281 12.785156 -1.90625 13.546875 -1.90625 C 14.984375 -1.90625 16.117188 -2.90625 16.953125 -4.90625 L 17.796875 -4.453125 C 16.535156 -1.015625 14.253906 0.703125 10.953125 0.703125 C 8.753906 0.703125 7.085938 0.132812 5.953125 -1 C 5.253906 -1.695312 4.78125 -2.570312 4.53125 -3.625 C 4.28125 -4.675781 4.15625 -6.117188 4.15625 -7.953125 L 4.15625 -24.84375 L -0.046875 -24.84375 L -0.046875 -25.84375 L 4.15625 -25.84375 L 4.15625 -32.453125 C 6.914062 -32.453125 9.3125 -32.984375 11.34375 -34.046875 Z M 11.34375 -25.84375 "/></g></g></g><g fill="#dec2ba" fill-opacity="1"><g transform="translate(199.262431, 200.715865)"><g><path d="M 14.09375 -26.546875 C 17.925781 -26.546875 20.925781 -25.453125 23.09375 -23.265625 C 25.257812 -21.085938 26.34375 -17.632812 26.34375 -12.90625 C 26.34375 -8.164062 25.257812 -4.710938 23.09375 -2.546875 C 20.925781 -0.378906 17.925781 0.703125 14.09375 0.703125 C 10.300781 0.703125 7.3125 -0.378906 5.125 -2.546875 C 2.9375 -4.710938 1.84375 -8.164062 1.84375 -12.90625 C 1.84375 -17.632812 2.9375 -21.085938 5.125 -23.265625 C 7.3125 -25.453125 10.300781 -26.546875 14.09375 -26.546875 Z M 14.09375 -25.546875 C 12.664062 -25.546875 11.523438 -24.503906 10.671875 -22.421875 C 9.828125 -20.335938 9.40625 -17.164062 9.40625 -12.90625 C 9.40625 -8.632812 9.828125 -5.460938 10.671875 -3.390625 C 11.523438 -1.328125 12.664062 -0.296875 14.09375 -0.296875 C 15.5625 -0.296875 16.710938 -1.320312 17.546875 -3.375 C 18.378906 -5.425781 18.796875 -8.601562 18.796875 -12.90625 C 18.796875 -17.195312 18.367188 -20.375 17.515625 -22.4375 C 16.671875 -24.507812 15.53125 -25.546875 14.09375 -25.546875 Z M 14.09375 -25.546875 "/></g></g></g><g fill="#dec2ba" fill-opacity="1"><g transform="translate(226.008062, 200.715865)"><g><path d="M 11.09375 -26.546875 C 12.363281 -26.546875 13.53125 -26.382812 14.59375 -26.0625 C 15.664062 -25.75 16.484375 -25.394531 17.046875 -25 C 17.378906 -24.769531 17.679688 -24.65625 17.953125 -24.65625 C 18.253906 -24.65625 18.507812 -24.8125 18.71875 -25.125 C 18.9375 -25.4375 19.082031 -25.894531 19.15625 -26.5 L 20.203125 -26.5 C 20.066406 -24.800781 20 -21.867188 20 -17.703125 L 18.953125 -17.703125 C 18.648438 -19.898438 17.988281 -21.738281 16.96875 -23.21875 C 15.957031 -24.707031 14.484375 -25.453125 12.546875 -25.453125 C 11.546875 -25.453125 10.71875 -25.164062 10.0625 -24.59375 C 9.414062 -24.03125 9.09375 -23.25 9.09375 -22.25 C 9.09375 -21.113281 9.476562 -20.132812 10.25 -19.3125 C 11.019531 -18.5 12.21875 -17.507812 13.84375 -16.34375 L 15.296875 -15.296875 C 17.328125 -13.765625 18.828125 -12.398438 19.796875 -11.203125 C 20.765625 -10.003906 21.25 -8.503906 21.25 -6.703125 C 21.25 -5.234375 20.820312 -3.929688 19.96875 -2.796875 C 19.125 -1.660156 17.984375 -0.789062 16.546875 -0.1875 C 15.117188 0.40625 13.535156 0.703125 11.796875 0.703125 C 9.960938 0.703125 8.394531 0.351562 7.09375 -0.34375 C 6.03125 -0.882812 5.265625 -1.238281 4.796875 -1.40625 C 4.460938 -1.5 4.171875 -1.382812 3.921875 -1.0625 C 3.671875 -0.75 3.476562 -0.28125 3.34375 0.34375 L 2.296875 0.34375 C 2.429688 -1.550781 2.5 -4.882812 2.5 -9.65625 L 3.546875 -9.65625 C 4.210938 -3.519531 6.460938 -0.453125 10.296875 -0.453125 C 11.265625 -0.453125 12.085938 -0.742188 12.765625 -1.328125 C 13.453125 -1.910156 13.796875 -2.800781 13.796875 -4 C 13.796875 -4.9375 13.585938 -5.769531 13.171875 -6.5 C 12.753906 -7.226562 12.226562 -7.875 11.59375 -8.4375 C 10.96875 -9.007812 10.019531 -9.796875 8.75 -10.796875 C 7.25 -11.992188 6.109375 -12.957031 5.328125 -13.6875 C 4.546875 -14.425781 3.878906 -15.296875 3.328125 -16.296875 C 2.773438 -17.296875 2.5 -18.414062 2.5 -19.65625 C 2.5 -21.78125 3.332031 -23.457031 5 -24.6875 C 6.664062 -25.925781 8.695312 -26.546875 11.09375 -26.546875 Z M 11.09375 -26.546875 "/></g></g></g><g fill="#dec2ba" fill-opacity="1"><g transform="translate(247.604481, 200.715865)"><g><path d="M 11.34375 -21.90625 C 12.84375 -25 15.5625 -26.546875 19.5 -26.546875 C 22.101562 -26.546875 23.9375 -25.894531 25 -24.59375 C 25.5625 -23.96875 25.96875 -23.144531 26.21875 -22.125 C 26.46875 -21.101562 26.59375 -19.757812 26.59375 -18.09375 L 26.59375 -4.65625 C 26.59375 -3.28125 26.828125 -2.332031 27.296875 -1.8125 C 27.765625 -1.300781 28.597656 -1.046875 29.796875 -1.046875 L 29.796875 0 C 26.328125 -0.132812 24.128906 -0.203125 23.203125 -0.203125 C 22.066406 -0.203125 19.898438 -0.132812 16.703125 0 L 16.703125 -1.046875 C 17.703125 -1.046875 18.398438 -1.300781 18.796875 -1.8125 C 19.203125 -2.332031 19.40625 -3.28125 19.40625 -4.65625 L 19.40625 -20.203125 C 19.40625 -21.566406 19.175781 -22.597656 18.71875 -23.296875 C 18.269531 -23.992188 17.460938 -24.34375 16.296875 -24.34375 C 14.898438 -24.34375 13.722656 -23.800781 12.765625 -22.71875 C 11.816406 -21.632812 11.34375 -20.257812 11.34375 -18.59375 L 11.34375 -4.65625 C 11.34375 -3.28125 11.539062 -2.332031 11.9375 -1.8125 C 12.34375 -1.300781 13.046875 -1.046875 14.046875 -1.046875 L 14.046875 0 C 10.847656 -0.132812 8.78125 -0.203125 7.84375 -0.203125 C 6.71875 -0.203125 4.421875 -0.132812 0.953125 0 L 0.953125 -1.046875 C 2.117188 -1.046875 2.941406 -1.300781 3.421875 -1.8125 C 3.910156 -2.332031 4.15625 -3.28125 4.15625 -4.65625 L 4.15625 -33.09375 C 4.15625 -34.632812 3.910156 -35.753906 3.421875 -36.453125 C 2.941406 -37.148438 2.117188 -37.5 0.953125 -37.5 L 0.953125 -38.546875 C 2.015625 -38.453125 3.046875 -38.40625 4.046875 -38.40625 C 6.953125 -38.40625 9.382812 -38.632812 11.34375 -39.09375 Z M 11.34375 -21.90625 "/></g></g></g><g fill="#dec2ba" fill-opacity="1"><g transform="translate(276.499781, 200.715865)"><g><path d="M 7.703125 -38.75 C 9.109375 -38.75 10.21875 -38.40625 11.03125 -37.71875 C 11.84375 -37.039062 12.25 -36.101562 12.25 -34.90625 C 12.25 -33.695312 11.84375 -32.75 11.03125 -32.0625 C 10.21875 -31.382812 9.109375 -31.046875 7.703125 -31.046875 C 6.304688 -31.046875 5.195312 -31.382812 4.375 -32.0625 C 3.5625 -32.75 3.15625 -33.695312 3.15625 -34.90625 C 3.15625 -36.101562 3.5625 -37.039062 4.375 -37.71875 C 5.195312 -38.40625 6.304688 -38.75 7.703125 -38.75 Z M 11.59375 -4.65625 C 11.59375 -3.28125 11.832031 -2.332031 12.3125 -1.8125 C 12.800781 -1.300781 13.628906 -1.046875 14.796875 -1.046875 L 14.796875 0 C 11.460938 -0.132812 9.25 -0.203125 8.15625 -0.203125 C 7.113281 -0.203125 4.796875 -0.132812 1.203125 0 L 1.203125 -1.046875 C 2.398438 -1.046875 3.234375 -1.300781 3.703125 -1.8125 C 4.171875 -2.332031 4.40625 -3.28125 4.40625 -4.65625 L 4.40625 -20.40625 C 4.40625 -21.9375 4.171875 -23.050781 3.703125 -23.75 C 3.234375 -24.445312 2.398438 -24.796875 1.203125 -24.796875 L 1.203125 -25.84375 C 2.265625 -25.75 3.296875 -25.703125 4.296875 -25.703125 C 7.265625 -25.703125 9.695312 -25.9375 11.59375 -26.40625 Z M 11.59375 -4.65625 "/></g></g></g><g clip-path="url(#e06f8f0b48)"><path fill="#060606" d="M 57.050781 221.089844 L 317.933594 221.089844 L 317.933594 245.910156 L 57.050781 245.910156 Z M 57.050781 221.089844 " fill-opacity="1" fill-rule="nonzero"/></g><g fill="#fbfaf9" fill-opacity="1"><g transform="translate(63.496878, 237.144241)"><g><path d="M 6.078125 -6.4375 L 2.28125 -6.4375 L 2.28125 -4.25 L 5.71875 -4.25 L 5.71875 -3.109375 L 2.28125 -3.109375 L 2.28125 0 L 1 0 L 1 -7.578125 L 6.078125 -7.578125 Z M 6.078125 -6.4375 "/></g></g></g><g fill="#fbfaf9" fill-opacity="1"><g transform="translate(75.680185, 237.144241)"><g><path d="M 7.4375 -7.578125 L 7.4375 -3.140625 C 7.4375 -2.148438 7.144531 -1.367188 6.5625 -0.796875 C 5.976562 -0.234375 5.171875 0.046875 4.140625 0.046875 C 3.117188 0.046875 2.3125 -0.234375 1.71875 -0.796875 C 1.132812 -1.367188 0.84375 -2.148438 0.84375 -3.140625 L 0.84375 -7.578125 L 2.125 -7.578125 L 2.125 -3.140625 C 2.125 -2.503906 2.304688 -2.003906 2.671875 -1.640625 C 3.035156 -1.273438 3.53125 -1.09375 4.15625 -1.09375 C 4.78125 -1.09375 5.269531 -1.269531 5.625 -1.625 C 5.976562 -1.988281 6.15625 -2.492188 6.15625 -3.140625 L 6.15625 -7.578125 Z M 7.4375 -7.578125 "/></g></g></g><g fill="#fbfaf9" fill-opacity="1"><g transform="translate(89.909992, 237.144241)"><g><path d="M 2.28125 -1.15625 L 5.5625 -1.15625 L 5.5625 0 L 1 0 L 1 -7.578125 L 2.28125 -7.578125 Z M 2.28125 -1.15625 "/></g></g></g><g fill="#fbfaf9" fill-opacity="1"><g transform="translate(101.64935, 237.144241)"><g><path d="M 2.28125 -1.15625 L 5.5625 -1.15625 L 5.5625 0 L 1 0 L 1 -7.578125 L 2.28125 -7.578125 Z M 2.28125 -1.15625 "/></g></g></g><g fill="#fbfaf9" fill-opacity="1"><g transform="translate(113.388704, 237.144241)"><g/></g></g><g fill="#fbfaf9" fill-opacity="1"><g transform="translate(122.139502, 237.144241)"><g><path d="M 3.484375 -7.640625 C 4.460938 -7.640625 5.347656 -7.378906 6.140625 -6.859375 L 5.609375 -5.734375 C 4.835938 -6.203125 4.097656 -6.4375 3.390625 -6.4375 C 3.003906 -6.4375 2.703125 -6.363281 2.484375 -6.21875 C 2.265625 -6.082031 2.15625 -5.890625 2.15625 -5.640625 C 2.15625 -5.390625 2.253906 -5.175781 2.453125 -5 C 2.660156 -4.820312 2.914062 -4.691406 3.21875 -4.609375 C 3.519531 -4.523438 3.847656 -4.421875 4.203125 -4.296875 C 4.554688 -4.171875 4.882812 -4.035156 5.1875 -3.890625 C 5.488281 -3.753906 5.738281 -3.535156 5.9375 -3.234375 C 6.132812 -2.929688 6.234375 -2.566406 6.234375 -2.140625 C 6.234375 -1.472656 5.96875 -0.941406 5.4375 -0.546875 C 4.90625 -0.148438 4.21875 0.046875 3.375 0.046875 C 2.800781 0.046875 2.242188 -0.0625 1.703125 -0.28125 C 1.160156 -0.5 0.6875 -0.789062 0.28125 -1.15625 L 0.828125 -2.265625 C 1.210938 -1.910156 1.632812 -1.632812 2.09375 -1.4375 C 2.550781 -1.25 2.988281 -1.15625 3.40625 -1.15625 C 3.851562 -1.15625 4.195312 -1.234375 4.4375 -1.390625 C 4.6875 -1.554688 4.8125 -1.785156 4.8125 -2.078125 C 4.8125 -2.335938 4.710938 -2.554688 4.515625 -2.734375 C 4.316406 -2.910156 4.0625 -3.039062 3.75 -3.125 C 3.445312 -3.207031 3.117188 -3.304688 2.765625 -3.421875 C 2.410156 -3.546875 2.082031 -3.671875 1.78125 -3.796875 C 1.476562 -3.929688 1.222656 -4.144531 1.015625 -4.4375 C 0.816406 -4.738281 0.71875 -5.097656 0.71875 -5.515625 C 0.71875 -6.160156 0.96875 -6.675781 1.46875 -7.0625 C 1.976562 -7.445312 2.648438 -7.640625 3.484375 -7.640625 Z M 3.484375 -7.640625 "/></g></g></g><g fill="#fbfaf9" fill-opacity="1"><g transform="translate(134.831726, 237.144241)"><g><path d="M 6.171875 -6.4375 L 3.765625 -6.4375 L 3.765625 0 L 2.484375 0 L 2.484375 -6.4375 L 0.09375 -6.4375 L 0.09375 -7.578125 L 6.171875 -7.578125 Z M 6.171875 -6.4375 "/></g></g></g><g fill="#fbfaf9" fill-opacity="1"><g transform="translate(147.058347, 237.144241)"><g><path d="M 5.890625 -1.703125 L 2.0625 -1.703125 L 1.34375 0 L 0.015625 0 L 3.359375 -7.578125 L 4.671875 -7.578125 L 7.984375 0 L 6.609375 0 Z M 5.40625 -2.84375 L 3.96875 -6.21875 L 2.546875 -2.84375 Z M 5.40625 -2.84375 "/></g></g></g><g fill="#fbfaf9" fill-opacity="1"><g transform="translate(161.006634, 237.144241)"><g><path d="M 4.359375 -7.609375 C 4.890625 -7.609375 5.410156 -7.503906 5.921875 -7.296875 C 6.429688 -7.097656 6.867188 -6.8125 7.234375 -6.4375 L 6.484375 -5.515625 C 6.210938 -5.804688 5.890625 -6.035156 5.515625 -6.203125 C 5.140625 -6.378906 4.757812 -6.46875 4.375 -6.46875 C 3.613281 -6.46875 2.972656 -6.207031 2.453125 -5.6875 C 1.929688 -5.175781 1.671875 -4.550781 1.671875 -3.8125 C 1.671875 -3.0625 1.929688 -2.425781 2.453125 -1.90625 C 2.972656 -1.394531 3.613281 -1.140625 4.375 -1.140625 C 5.164062 -1.140625 5.867188 -1.4375 6.484375 -2.03125 L 7.25 -1.1875 C 6.851562 -0.8125 6.394531 -0.507812 5.875 -0.28125 C 5.351562 -0.0625 4.832031 0.046875 4.3125 0.046875 C 3.195312 0.046875 2.257812 -0.320312 1.5 -1.0625 C 0.75 -1.800781 0.375 -2.710938 0.375 -3.796875 C 0.375 -4.867188 0.753906 -5.769531 1.515625 -6.5 C 2.285156 -7.238281 3.234375 -7.609375 4.359375 -7.609375 Z M 4.359375 -7.609375 "/></g></g></g><g fill="#fbfaf9" fill-opacity="1"><g transform="translate(174.51097, 237.144241)"><g><path d="M 6.046875 0 L 3.5625 -3.34375 L 2.28125 -1.921875 L 2.28125 0 L 1 0 L 1 -7.578125 L 2.28125 -7.578125 L 2.28125 -3.65625 L 5.890625 -7.578125 L 7.390625 -7.578125 L 4.46875 -4.34375 L 7.59375 0 Z M 6.046875 0 "/></g></g></g><g fill="#fbfaf9" fill-opacity="1"><g transform="translate(188.242689, 237.144241)"><g/></g></g><g fill="#fbfaf9" fill-opacity="1"><g transform="translate(196.993494, 237.144241)"><g><path d="M 1 -7.578125 L 4.109375 -7.578125 C 5.234375 -7.578125 6.164062 -7.21875 6.90625 -6.5 C 7.65625 -5.789062 8.03125 -4.882812 8.03125 -3.78125 C 8.03125 -2.6875 7.65625 -1.78125 6.90625 -1.0625 C 6.164062 -0.351562 5.222656 0 4.078125 0 L 1 0 Z M 2.28125 -6.4375 L 2.28125 -1.140625 L 4.140625 -1.140625 C 4.878906 -1.140625 5.492188 -1.382812 5.984375 -1.875 C 6.484375 -2.375 6.734375 -3.003906 6.734375 -3.765625 C 6.734375 -4.535156 6.476562 -5.171875 5.96875 -5.671875 C 5.457031 -6.179688 4.828125 -6.4375 4.078125 -6.4375 Z M 2.28125 -6.4375 "/></g></g></g><g fill="#fbfaf9" fill-opacity="1"><g transform="translate(211.342415, 237.144241)"><g><path d="M 6.40625 -6.4375 L 2.28125 -6.4375 L 2.28125 -4.390625 L 5.984375 -4.390625 L 5.984375 -3.234375 L 2.28125 -3.234375 L 2.28125 -1.140625 L 6.546875 -1.140625 L 6.546875 0 L 1 0 L 1 -7.578125 L 6.40625 -7.578125 Z M 6.40625 -6.4375 "/></g></g></g><g fill="#fbfaf9" fill-opacity="1"><g transform="translate(224.402801, 237.144241)"><g><path d="M 4.375 0 L 3.046875 0 L 0.03125 -7.578125 L 1.40625 -7.578125 L 3.75 -1.421875 L 6.109375 -7.578125 L 7.4375 -7.578125 Z M 4.375 0 "/></g></g></g><g fill="#fbfaf9" fill-opacity="1"><g transform="translate(237.831343, 237.144241)"><g><path d="M 6.40625 -6.4375 L 2.28125 -6.4375 L 2.28125 -4.390625 L 5.984375 -4.390625 L 5.984375 -3.234375 L 2.28125 -3.234375 L 2.28125 -1.140625 L 6.546875 -1.140625 L 6.546875 0 L 1 0 L 1 -7.578125 L 6.40625 -7.578125 Z M 6.40625 -6.4375 "/></g></g></g><g fill="#fbfaf9" fill-opacity="1"><g transform="translate(250.891729, 237.144241)"><g><path d="M 2.28125 -1.15625 L 5.5625 -1.15625 L 5.5625 0 L 1 0 L 1 -7.578125 L 2.28125 -7.578125 Z M 2.28125 -1.15625 "/></g></g></g><g fill="#fbfaf9" fill-opacity="1"><g transform="translate(262.631089, 237.144241)"><g><path d="M 1.53125 -6.5 C 2.300781 -7.238281 3.25 -7.609375 4.375 -7.609375 C 5.507812 -7.609375 6.460938 -7.238281 7.234375 -6.5 C 8.015625 -5.769531 8.40625 -4.863281 8.40625 -3.78125 C 8.40625 -2.707031 8.015625 -1.800781 7.234375 -1.0625 C 6.460938 -0.320312 5.507812 0.046875 4.375 0.046875 C 3.25 0.046875 2.300781 -0.320312 1.53125 -1.0625 C 0.757812 -1.800781 0.375 -2.707031 0.375 -3.78125 C 0.375 -4.863281 0.757812 -5.769531 1.53125 -6.5 Z M 4.390625 -6.46875 C 3.640625 -6.46875 3 -6.207031 2.46875 -5.6875 C 1.9375 -5.175781 1.671875 -4.539062 1.671875 -3.78125 C 1.671875 -3.03125 1.9375 -2.394531 2.46875 -1.875 C 3.007812 -1.351562 3.648438 -1.09375 4.390625 -1.09375 C 5.140625 -1.09375 5.773438 -1.351562 6.296875 -1.875 C 6.828125 -2.394531 7.09375 -3.03125 7.09375 -3.78125 C 7.09375 -4.539062 6.828125 -5.175781 6.296875 -5.6875 C 5.773438 -6.207031 5.140625 -6.46875 4.390625 -6.46875 Z M 4.390625 -6.46875 "/></g></g></g><g fill="#fbfaf9" fill-opacity="1"><g transform="translate(277.358994, 237.144241)"><g><path d="M 1 -7.578125 L 4.015625 -7.578125 C 4.972656 -7.578125 5.710938 -7.347656 6.234375 -6.890625 C 6.753906 -6.441406 7.015625 -5.804688 7.015625 -4.984375 C 7.015625 -4.128906 6.753906 -3.460938 6.234375 -2.984375 C 5.710938 -2.515625 4.972656 -2.28125 4.015625 -2.28125 L 2.28125 -2.28125 L 2.28125 0 L 1 0 Z M 2.28125 -6.4375 L 2.28125 -3.4375 L 3.96875 -3.4375 C 5.1875 -3.4375 5.796875 -3.941406 5.796875 -4.953125 C 5.796875 -5.941406 5.1875 -6.4375 3.96875 -6.4375 Z M 2.28125 -6.4375 "/></g></g></g><g fill="#fbfaf9" fill-opacity="1"><g transform="translate(290.603446, 237.144241)"><g><path d="M 6.40625 -6.4375 L 2.28125 -6.4375 L 2.28125 -4.390625 L 5.984375 -4.390625 L 5.984375 -3.234375 L 2.28125 -3.234375 L 2.28125 -1.140625 L 6.546875 -1.140625 L 6.546875 0 L 1 0 L 1 -7.578125 L 6.40625 -7.578125 Z M 6.40625 -6.4375 "/></g></g></g><g fill="#fbfaf9" fill-opacity="1"><g transform="translate(303.663832, 237.144241)"><g><path d="M 5.796875 0 L 4.421875 -2.296875 C 4.347656 -2.285156 4.234375 -2.28125 4.078125 -2.28125 L 2.28125 -2.28125 L 2.28125 0 L 1 0 L 1 -7.578125 L 4.078125 -7.578125 C 5.035156 -7.578125 5.78125 -7.347656 6.3125 -6.890625 C 6.851562 -6.441406 7.125 -5.804688 7.125 -4.984375 C 7.125 -4.378906 6.988281 -3.867188 6.71875 -3.453125 C 6.445312 -3.035156 6.0625 -2.726562 5.5625 -2.53125 L 7.25 0 Z M 2.28125 -3.4375 L 4.078125 -3.4375 C 5.296875 -3.4375 5.90625 -3.941406 5.90625 -4.953125 C 5.90625 -5.941406 5.296875 -6.4375 4.078125 -6.4375 L 2.28125 -6.4375 Z M 2.28125 -3.4375 "/></g></g></g></svg>